<?xml version="1.0" encoding="UTF-8" standalone="no"?>
<!DOCTYPE svg PUBLIC "-//W3C//DTD SVG 1.1//EN" "http://www.w3.org/Graphics/SVG/1.1/DTD/svg11.dtd">
<svg width="100%" height="100%" viewBox="0 0 23623 5906" version="1.1" xmlns="http://www.w3.org/2000/svg" xmlns:xlink="http://www.w3.org/1999/xlink" xml:space="preserve" xmlns:serif="http://www.serif.com/" style="fill-rule:evenodd;clip-rule:evenodd;stroke-linejoin:round;stroke-miterlimit:2;">
    <g id="Capa-1" serif:id="Capa 1" transform="matrix(4.16667,0,0,4.16667,0,0)">
        <g transform="matrix(1,0,0,1,-4.9778,227.525)">
            <path d="M1548.14,869.535L1548.14,128.999L1786.14,128.999C1876.33,128.999 1935.12,132.703 1962.51,140.112C2004.6,151.225 2039.84,175.387 2068.23,212.599C2096.63,249.811 2110.82,297.884 2110.82,356.817C2110.82,402.28 2102.64,440.502 2086.27,471.484C2069.9,502.466 2049.11,526.797 2023.89,544.477C1998.67,562.157 1973.03,573.859 1946.98,579.584C1911.57,586.656 1860.3,590.192 1793.15,590.192L1696.45,590.192L1696.45,869.535L1548.14,869.535ZM1696.45,254.273L1696.45,464.412L1777.62,464.412C1836.08,464.412 1875.16,460.539 1894.87,452.794C1914.58,445.048 1930.03,432.925 1941.22,416.424C1952.41,399.922 1958,380.727 1958,358.838C1958,331.897 1950.15,309.67 1934.45,292.159C1918.75,274.647 1898.88,263.703 1874.83,259.325C1857.12,255.957 1821.55,254.273 1768.1,254.273L1696.45,254.273Z" style="fill:rgb(234,234,234);fill-rule:nonzero;"/>
            <path d="M2285.46,496.741L2157.69,473.504C2172.05,421.643 2196.77,383.253 2231.84,358.332C2266.92,333.412 2319.03,320.952 2388.17,320.952C2450.97,320.952 2497.74,328.445 2528.47,343.431C2559.2,358.417 2580.83,377.444 2593.36,400.512C2605.88,423.58 2612.14,465.927 2612.14,527.555L2610.64,693.241C2610.64,740.387 2612.9,775.158 2617.41,797.552C2621.91,819.947 2630.35,843.941 2642.71,869.535L2503.42,869.535C2499.74,860.106 2495.23,846.13 2489.89,827.608C2487.55,819.189 2485.88,813.633 2484.88,810.938C2460.83,834.512 2435.11,852.192 2407.71,863.978C2380.32,875.765 2351.1,881.658 2320.03,881.658C2265.25,881.658 2222.07,866.672 2190.51,836.701C2158.94,806.729 2143.16,768.843 2143.16,723.044C2143.16,692.736 2150.34,665.711 2164.7,641.969C2179.07,618.227 2199.19,600.042 2225.08,587.414C2250.97,574.785 2288.3,563.756 2337.07,554.327C2402.87,541.867 2448.47,530.249 2473.85,519.472L2473.85,505.328C2473.85,478.051 2467.17,458.603 2453.81,446.985C2440.45,435.366 2415.23,429.557 2378.15,429.557C2353.1,429.557 2333.56,434.524 2319.53,444.459C2305.5,454.393 2294.14,471.821 2285.46,496.741ZM2473.85,611.913C2455.82,617.975 2427.26,625.215 2388.17,633.634C2349.09,642.053 2323.54,650.304 2311.51,658.386C2293.14,671.52 2283.95,688.189 2283.95,708.395C2283.95,728.264 2291.3,745.439 2306,759.919C2320.7,774.4 2339.4,781.64 2362.12,781.64C2387.51,781.64 2411.72,773.221 2434.77,756.383C2451.81,743.586 2463,727.927 2468.34,709.405C2472.02,697.282 2473.85,674.214 2473.85,640.201L2473.85,611.913Z" style="fill:rgb(234,234,234);fill-rule:nonzero;"/>
            <path d="M2834.38,869.535L2693.58,869.535L2693.58,333.075L2824.36,333.075L2824.36,409.352C2846.74,373.318 2866.86,349.577 2884.74,338.127C2902.61,326.677 2922.9,320.952 2945.61,320.952C2977.68,320.952 3008.58,329.876 3038.31,347.724L2994.72,471.484C2971,455.993 2948.95,448.247 2928.58,448.247C2908.87,448.247 2892.17,453.72 2878.47,464.665C2864.78,475.609 2854,495.394 2846.15,524.019C2838.3,552.643 2834.38,612.587 2834.38,703.849L2834.38,869.535Z" style="fill:rgb(234,234,234);fill-rule:nonzero;"/>
            <path d="M3291.61,333.075L3291.61,446.227L3195.4,446.227L3195.4,662.427C3195.4,706.206 3196.32,731.716 3198.16,738.956C3200,746.196 3204.17,752.174 3210.69,756.888C3217.2,761.603 3225.13,763.96 3234.49,763.96C3247.51,763.96 3266.39,759.414 3291.11,750.322L3303.13,860.442C3270.4,874.586 3233.32,881.658 3191.9,881.658C3166.51,881.658 3143.63,877.364 3123.25,868.777C3102.88,860.19 3087.93,849.077 3078.41,835.438C3068.89,821.799 3062.29,803.361 3058.62,780.125C3055.61,763.624 3054.11,730.284 3054.11,680.107L3054.11,446.227L2989.47,446.227L2989.47,333.075L3054.11,333.075L3054.11,226.491L3195.4,143.648L3195.4,333.075L3291.61,333.075Z" style="fill:rgb(234,234,234);fill-rule:nonzero;"/>
            <path d="M3821.99,869.535L3681.19,869.535L3681.19,595.749C3681.19,537.826 3678.19,500.361 3672.17,483.355C3666.16,466.348 3656.39,453.13 3642.86,443.701C3629.33,434.272 3613.05,429.557 3594.01,429.557C3569.62,429.557 3547.74,436.292 3528.37,449.763C3509,463.233 3495.72,481.082 3488.54,503.308C3481.36,525.534 3477.76,566.619 3477.76,626.562L3477.76,869.535L3336.97,869.535L3336.97,333.075L3467.74,333.075L3467.74,411.877C3514.18,351.26 3572.63,320.952 3643.11,320.952C3674.18,320.952 3702.57,326.593 3728.29,337.874C3754.01,349.156 3773.47,363.552 3786.67,381.064C3799.86,398.575 3809.05,418.444 3814.22,440.67C3819.4,462.897 3821.99,494.72 3821.99,536.142L3821.99,869.535Z" style="fill:rgb(234,234,234);fill-rule:nonzero;"/>
            <path d="M4221.6,698.797L4361.89,722.539C4343.86,774.4 4315.38,813.885 4276.46,840.994C4237.55,868.104 4188.86,881.658 4130.4,881.658C4037.88,881.658 3969.4,851.181 3924.97,790.228C3889.9,741.397 3872.36,679.77 3872.36,605.346C3872.36,516.441 3895.41,446.816 3941.51,396.471C3987.6,346.125 4045.89,320.952 4116.38,320.952C4195.54,320.952 4258.01,347.303 4303.77,400.006C4349.53,452.71 4371.41,533.448 4369.41,642.221L4016.66,642.221C4017.67,684.317 4029.03,717.066 4050.74,740.471C4072.45,763.876 4099.51,775.579 4131.91,775.579C4153.95,775.579 4172.49,769.517 4187.52,757.394C4202.56,745.27 4213.91,725.738 4221.6,698.797ZM4229.61,555.337C4228.61,514.252 4218.09,483.018 4198.05,461.634C4178.01,440.249 4153.62,429.557 4124.89,429.557C4094.16,429.557 4068.78,440.839 4048.73,463.402C4028.69,485.965 4018.84,516.61 4019.17,555.337L4229.61,555.337Z" style="fill:rgb(234,234,234);fill-rule:nonzero;"/>
            <path d="M4896.78,491.69L4757.99,516.947C4753.32,488.995 4742.71,467.948 4726.18,453.804C4709.64,439.66 4688.18,432.588 4661.79,432.588C4626.72,432.588 4598.74,444.796 4577.86,469.211C4556.99,493.626 4546.55,534.458 4546.55,591.707C4546.55,655.355 4557.15,700.313 4578.36,726.58C4599.58,752.847 4628.05,765.981 4663.79,765.981C4690.52,765.981 4712.4,758.32 4729.43,742.997C4746.47,727.674 4758.49,701.323 4765.51,663.943L4903.8,687.684C4889.44,751.669 4861.88,799.994 4821.13,832.66C4780.37,865.325 4725.76,881.658 4657.28,881.658C4579.45,881.658 4517.4,856.906 4471.14,807.402C4424.87,757.899 4401.74,689.368 4401.74,601.81C4401.74,513.242 4424.96,444.291 4471.39,394.955C4517.82,345.62 4580.62,320.952 4659.79,320.952C4724.59,320.952 4776.11,335.012 4814.36,363.131C4852.61,391.251 4880.08,434.103 4896.78,491.69Z" style="fill:rgb(234,234,234);fill-rule:nonzero;"/>
            <path d="M4919.6,593.728C4919.6,546.581 4931.12,500.95 4954.17,456.835C4977.22,412.719 5009.87,379.043 5052.13,355.807C5094.38,332.57 5141.57,320.952 5193.68,320.952C5274.18,320.952 5340.15,347.303 5391.59,400.006C5443.03,452.71 5468.76,519.304 5468.76,599.79C5468.76,680.949 5442.78,748.217 5390.84,801.593C5338.9,854.97 5273.51,881.658 5194.68,881.658C5145.91,881.658 5099.39,870.545 5055.13,848.319C5010.87,826.093 4977.22,793.511 4954.17,750.574C4931.12,707.637 4919.6,655.355 4919.6,593.728ZM5063.9,601.305C5063.9,654.513 5076.43,695.261 5101.48,723.549C5126.53,751.837 5157.43,765.981 5194.18,765.981C5230.92,765.981 5261.74,751.837 5286.62,723.549C5311.51,695.261 5323.95,654.176 5323.95,600.295C5323.95,547.76 5311.51,507.349 5286.62,479.061C5261.74,450.773 5230.92,436.629 5194.18,436.629C5157.43,436.629 5126.53,450.773 5101.48,479.061C5076.43,507.349 5063.9,548.097 5063.9,601.305Z" style="fill:rgb(234,234,234);fill-rule:nonzero;"/>
            <rect x="5527.65" y="128.999" width="140.797" height="740.536" style="fill:rgb(234,234,234);"/>
        </g>
        <g transform="matrix(-6.1e-05,-1418.74,-1418.74,6.1e-05,1041.36,1427.13)">
            <path d="M0.42,-0.078C0.411,-0.075 0.402,-0.073 0.394,-0.069C0.272,-0.028 0.184,0.087 0.184,0.223L0.184,0.264L0.007,0.264L0.007,0.148C0.042,-0.064 0.209,-0.23 0.42,-0.264L0.42,-0.078Z" style="fill:url(#_Linear1);fill-rule:nonzero;"/>
        </g>
        <g transform="matrix(-6.1e-05,-1418.76,-1418.76,6.1e-05,709.859,1427.13)">
            <path d="M0.5,0.5C0.287,0.5 0.106,0.367 0.033,0.179L0.326,0.179L0.326,0.321C0.326,0.346 0.344,0.365 0.367,0.365C0.39,0.365 0.409,0.346 0.409,0.321L0.409,0.179L0.58,0.179L0.58,0.321C0.58,0.345 0.598,0.364 0.621,0.364C0.644,0.364 0.663,0.345 0.663,0.321L0.663,0.179L0.799,0.179L0.799,-0.01C0.799,-0.129 0.732,-0.232 0.634,-0.284C0.613,-0.295 0.591,-0.304 0.567,-0.311L0.567,-0.5C0.812,-0.467 1,-0.257 1,-0.002C1,0.275 0.776,0.5 0.5,0.5Z" style="fill:url(#_Linear2);fill-rule:nonzero;"/>
        </g>
    </g>
    <defs>
        <linearGradient id="_Linear1" x1="0" y1="0" x2="1" y2="0" gradientUnits="userSpaceOnUse" gradientTransform="matrix(1,0,0,1,0,1.11967e-07)"><stop offset="0" style="stop-color:rgb(244,119,50);stop-opacity:1"/><stop offset="1" style="stop-color:rgb(240,76,52);stop-opacity:1"/></linearGradient>
        <linearGradient id="_Linear2" x1="0" y1="0" x2="1" y2="0" gradientUnits="userSpaceOnUse" gradientTransform="matrix(1,0,0,1,0,1.96472e-07)"><stop offset="0" style="stop-color:rgb(244,119,50);stop-opacity:1"/><stop offset="1" style="stop-color:rgb(240,76,52);stop-opacity:1"/></linearGradient>
    </defs>
</svg>
